<svg width="36" height="37" viewBox="0 0 36 37" fill="none" xmlns="http://www.w3.org/2000/svg">
<path d="M0.0799942 4.21276C0.0799942 2.10703 1.78703 0.399994 3.89276 0.399994H32.1072C34.213 0.399994 35.92 2.10703 35.92 4.21276V32.4272C35.92 34.533 34.213 36.24 32.1072 36.24H3.89276C1.78703 36.24 0.0799942 34.533 0.0799942 32.4272V4.21276Z" fill="#59E391"/>
<path d="M17.9131 12.3554H19.7455V25.8H17.316V15.2585C16.9522 15.4232 16.5954 15.5501 16.2454 15.6394C15.8953 15.7286 15.5453 15.7732 15.1953 15.7732V13.4466C15.662 13.3986 16.115 13.2922 16.5542 13.1275C16.9934 12.9559 17.4464 12.6986 17.9131 12.3554Z" fill="#2B283A"/>
</svg>
